<?xml version="1.0" encoding="utf-8"?>
<!-- Generator: Adobe Illustrator 28.4.1, SVG Export Plug-In . SVG Version: 6.00 Build 0)  -->
<svg version="1.1" id="Layer_1" xmlns="http://www.w3.org/2000/svg" xmlns:xlink="http://www.w3.org/1999/xlink" x="0px" y="0px"
	 viewBox="0 0 1000 300" style="enable-background:new 0 0 1000 300;" xml:space="preserve">
<style type="text/css">
	.st0{fill:#FDFCFD;}
	.st1{fill:#F1D1A4;}
	.st2{fill:#F4AC67;}
	.st3{fill:#FB9C23;}
	.st4{fill:#FA9F29;}
	.st5{fill:#FA9A20;}
	.st6{fill:#B18647;}
	.st7{fill:#1F2651;}
	.st8{fill:#7A7B7C;}
	.st9{fill:#F2D2A7;}
	.st10{fill:#FDA227;}
	.st11{fill:url(#SVGID_1_);}
	.st12{fill:url(#SVGID_00000085243833759034194950000011746953522781853327_);}
	.st13{fill:url(#SVGID_00000009589743902595152400000008692886832008800430_);}
	.st14{fill:url(#SVGID_00000093148946657255533510000011412791848407415462_);}
	.st15{fill:url(#SVGID_00000160873844411059013530000010116726726001445816_);}
	.st16{fill:url(#SVGID_00000074416649196739507320000006933730767290948282_);}
	.st17{fill:url(#SVGID_00000066491202280392312450000009114054399034648505_);}
	.st18{fill:url(#SVGID_00000077308302904579829590000014770800104731167397_);}
	.st19{fill:url(#SVGID_00000181060982360704750900000007667712728410180528_);}
	.st20{fill:url(#SVGID_00000043440607787894512580000016413404655351538824_);}
	.st21{fill:url(#SVGID_00000155135142903127581410000014327277678653088931_);}
	.st22{fill:url(#SVGID_00000018939330209732869990000011877383951153076657_);}
	.st23{fill:url(#SVGID_00000151538284936469147790000000265559191752959625_);}
	.st24{fill:url(#SVGID_00000077324295029127130990000010579210904465380745_);}
	.st25{fill:url(#SVGID_00000104691448498645015560000002753568633291956624_);}
	.st26{fill:url(#SVGID_00000049918491940504307360000004826285401694239877_);}
	.st27{fill:url(#SVGID_00000103986004108076653170000001753786357179720336_);}
	.st28{fill:url(#SVGID_00000056425342267614130360000012963121101816986506_);}
	.st29{fill:url(#SVGID_00000005978884345349636990000006056630702613747588_);}
	.st30{fill:url(#SVGID_00000178917028943153891340000010355196658822794883_);}
	.st31{fill:url(#SVGID_00000169556086892392371280000017799021023290624955_);}
	.st32{fill:url(#SVGID_00000122000599813634513290000001800844531789087123_);}
	.st33{fill:url(#SVGID_00000109020958891469485360000014014774163008825732_);}
	.st34{fill:url(#SVGID_00000000922753073284358840000017669592284530758556_);}
	.st35{fill:url(#SVGID_00000129163984756350051310000001969971269162379407_);}
	.st36{fill:url(#SVGID_00000037683948903662504160000018041809445035741368_);}
	.st37{fill:url(#SVGID_00000106831151617685779700000003285583144898730936_);}
	.st38{fill:url(#SVGID_00000002347957149501175770000009135552645147998641_);}
	.st39{fill:url(#SVGID_00000149367104143505923010000016307379413125649594_);}
	.st40{fill:url(#SVGID_00000013909927028905446510000012729519910211152033_);}
	.st41{fill:url(#SVGID_00000041275897855399490900000010030636324420858012_);}
	.st42{fill:url(#SVGID_00000044876614823378902920000009790401876985296533_);}
	.st43{fill:url(#SVGID_00000056397248163921771200000014633152406277973164_);}
	.st44{fill:url(#SVGID_00000031207179656943521960000008538902849975537069_);}
	.st45{fill:url(#SVGID_00000154400364929294049330000002254191018351186605_);}
	.st46{fill:url(#SVGID_00000008122876310601187520000008109737447035221946_);}
	.st47{fill:url(#SVGID_00000094607584092365226390000006886311562166903704_);}
	.st48{fill:url(#SVGID_00000146475774042397554220000007876992948912316093_);}
	.st49{fill:url(#SVGID_00000137129967008140534190000002146142575522155451_);}
	.st50{fill:url(#SVGID_00000021817729128074322820000005751509510669163190_);}
	.st51{fill:url(#SVGID_00000139274610681990918110000014974655598391210627_);}
</style>
<g>
	<g>
		<circle class="st1" cx="84.02" cy="66.79" r="21.14"/>
		<circle class="st2" cx="146.35" cy="66.79" r="21.14"/>
		<circle class="st3" cx="208.68" cy="66.79" r="21.14"/>
		<circle class="st4" cx="84.02" cy="129.12" r="21.14"/>
		<circle class="st5" cx="146.35" cy="129.12" r="21.14"/>
		<circle class="st6" cx="208.68" cy="129.12" r="21.14"/>
		<circle class="st7" cx="84.02" cy="191.45" r="21.14"/>
		<circle class="st8" cx="146.35" cy="191.45" r="21.14"/>
		<circle class="st9" cx="208.68" cy="191.45" r="21.14"/>
	</g>
	<rect x="272.81" y="45.65" class="st7" width="2.24" height="204.25"/>
	<g>
		<path class="st7" d="M320.59,48.14h11.89v41.67h25.75v9.68h-37.64V48.14z"/>
		<path class="st7" d="M377.42,96.93c-4.28-2.3-7.63-5.47-10.05-9.5c-2.42-4.04-3.63-8.57-3.63-13.61c0-5.04,1.21-9.57,3.63-13.61
			c2.42-4.04,5.77-7.2,10.05-9.5c4.28-2.3,9.09-3.45,14.42-3.45c5.33,0,10.12,1.15,14.38,3.45c4.26,2.3,7.61,5.47,10.05,9.5
			c2.45,4.04,3.67,8.57,3.67,13.61c0,5.04-1.22,9.57-3.67,13.61c-2.45,4.04-5.8,7.2-10.05,9.5c-4.26,2.3-9.05,3.45-14.38,3.45
			C386.5,100.38,381.7,99.23,377.42,96.93z M400.05,88.16c2.44-1.39,4.36-3.34,5.76-5.83c1.39-2.49,2.09-5.33,2.09-8.51
			c0-3.18-0.7-6.02-2.09-8.51c-1.39-2.49-3.31-4.44-5.76-5.83c-2.45-1.39-5.19-2.09-8.22-2.09c-3.03,0-5.77,0.7-8.22,2.09
			c-2.45,1.39-4.37,3.34-5.76,5.83c-1.39,2.49-2.09,5.33-2.09,8.51c0,3.18,0.7,6.02,2.09,8.51c1.39,2.49,3.31,4.44,5.76,5.83
			c2.45,1.39,5.18,2.09,8.22,2.09C394.87,90.26,397.61,89.56,400.05,88.16z"/>
		<path class="st7" d="M442.2,96.97c-4.23-2.27-7.56-5.43-9.98-9.46c-2.42-4.04-3.63-8.6-3.63-13.68c0-5.09,1.21-9.65,3.63-13.68
			c2.42-4.04,5.75-7.19,9.98-9.46c4.23-2.27,8.99-3.41,14.27-3.41c4.45,0,8.47,0.78,12.07,2.35c3.6,1.57,6.61,3.82,9.06,6.75
			l-7.63,7.04c-3.47-4.01-7.78-6.02-12.91-6.02c-3.18,0-6.02,0.7-8.51,2.09c-2.49,1.39-4.44,3.34-5.83,5.83
			c-1.39,2.49-2.09,5.33-2.09,8.51c0,3.18,0.7,6.02,2.09,8.51c1.39,2.49,3.34,4.44,5.83,5.83c2.49,1.39,5.33,2.09,8.51,2.09
			c5.14,0,9.44-2.03,12.91-6.09l7.63,7.04c-2.45,2.98-5.48,5.26-9.1,6.82c-3.62,1.56-7.66,2.35-12.11,2.35
			C451.17,100.38,446.43,99.24,442.2,96.97z"/>
		<path class="st7" d="M521.33,88.49h-23.84l-4.55,11.01h-12.18l22.89-51.36h11.74l22.97,51.36h-12.47L521.33,88.49z M517.59,79.47
			l-8.15-19.66l-8.14,19.66H517.59z"/>
		<path class="st7" d="M546.65,48.14h11.89v41.67h25.75v9.68h-37.64V48.14z"/>
		<path class="st10" d="M617.59,48.14h23.33c5.58,0,10.5,1.06,14.78,3.19c4.28,2.13,7.6,5.12,9.98,8.99
			c2.37,3.86,3.56,8.36,3.56,13.5c0,5.14-1.19,9.64-3.56,13.5c-2.37,3.86-5.7,6.86-9.98,8.99c-4.28,2.13-9.21,3.19-14.78,3.19
			h-23.33V48.14z M640.34,89.74c5.14,0,9.23-1.43,12.29-4.29c3.06-2.86,4.59-6.74,4.59-11.63c0-4.89-1.53-8.77-4.59-11.63
			c-3.06-2.86-7.15-4.29-12.29-4.29h-10.86v31.84H640.34z"/>
		<path class="st10" d="M681.13,48.14h11.89V99.5h-11.89V48.14z"/>
		<path class="st10" d="M742.84,73.01h10.86v20.84c-2.79,2.1-6.02,3.72-9.69,4.84c-3.67,1.12-7.36,1.69-11.08,1.69
			c-5.33,0-10.12-1.14-14.38-3.41c-4.26-2.27-7.59-5.43-10.02-9.46c-2.42-4.04-3.63-8.6-3.63-13.68c0-5.09,1.21-9.65,3.63-13.68
			c2.42-4.04,5.78-7.19,10.09-9.46c4.3-2.27,9.15-3.41,14.53-3.41c4.5,0,8.58,0.76,12.25,2.27c3.67,1.52,6.75,3.72,9.24,6.6
			l-7.63,7.04c-3.67-3.86-8.1-5.8-13.28-5.8c-3.28,0-6.19,0.69-8.73,2.05c-2.55,1.37-4.53,3.3-5.94,5.8
			c-1.42,2.49-2.13,5.36-2.13,8.58c0,3.18,0.71,6.02,2.13,8.51c1.42,2.49,3.39,4.44,5.91,5.83c2.52,1.39,5.39,2.09,8.62,2.09
			c3.42,0,6.5-0.73,9.24-2.2V73.01z"/>
		<path class="st10" d="M767.64,48.14h11.89V99.5h-11.89V48.14z"/>
		<path class="st10" d="M805.27,57.83h-16.44v-9.68h44.76v9.68h-16.44V99.5h-11.89V57.83z"/>
		<path class="st10" d="M874.17,88.49h-23.85l-4.55,11.01h-12.18l22.89-51.36h11.74l22.96,51.36h-12.47L874.17,88.49z M870.43,79.47
			l-8.15-19.66l-8.14,19.66H870.43z"/>
		<path class="st10" d="M899.48,48.14h11.89v41.67h25.75v9.68h-37.64V48.14z"/>
		<path class="st7" d="M365.2,165.5c1.66,2.18,2.49,4.86,2.49,8.03c0,4.5-1.75,7.96-5.25,10.38c-3.5,2.42-8.6,3.63-15.3,3.63h-26.56
			v-51.36h25.09c6.26,0,11.07,1.2,14.42,3.6c3.35,2.4,5.03,5.65,5.03,9.76c0,2.49-0.6,4.72-1.8,6.68c-1.2,1.96-2.87,3.5-5.03,4.62
			C361.24,161.77,363.54,163.32,365.2,165.5z M332.41,145.14v12.11h11.81c2.93,0,5.16-0.51,6.68-1.54c1.52-1.03,2.27-2.54,2.27-4.55
			c0-2.01-0.76-3.51-2.27-4.51c-1.52-1-3.74-1.5-6.68-1.5H332.41z M353.35,177.05c1.59-1.03,2.38-2.62,2.38-4.77
			c0-4.26-3.15-6.38-9.47-6.38h-13.87v12.69h13.87C349.4,178.59,351.76,178.08,353.35,177.05z"/>
		<path class="st7" d="M389.01,182.33c-4.08-4.06-6.13-9.86-6.13-17.39v-28.76h11.89v28.32c0,9.2,3.81,13.79,11.45,13.79
			c3.72,0,6.55-1.11,8.51-3.34c1.96-2.22,2.93-5.71,2.93-10.46v-28.32h11.74v28.76c0,7.53-2.04,13.33-6.13,17.39
			c-4.08,4.06-9.79,6.09-17.13,6.09C398.81,188.42,393.09,186.4,389.01,182.33z"/>
		<path class="st7" d="M452.84,186.77c-3.79-1.1-6.84-2.53-9.13-4.29l4.04-8.95c2.2,1.61,4.82,2.91,7.85,3.89
			c3.03,0.98,6.06,1.47,9.1,1.47c3.37,0,5.87-0.5,7.48-1.5c1.61-1,2.42-2.34,2.42-4c0-1.22-0.48-2.24-1.43-3.05
			c-0.95-0.81-2.18-1.45-3.67-1.94c-1.49-0.49-3.51-1.03-6.05-1.61c-3.91-0.93-7.12-1.86-9.61-2.79c-2.49-0.93-4.63-2.42-6.42-4.48
			c-1.79-2.05-2.68-4.79-2.68-8.22c0-2.98,0.81-5.69,2.42-8.11s4.05-4.34,7.3-5.76c3.25-1.42,7.23-2.13,11.92-2.13
			c3.28,0,6.48,0.39,9.61,1.17c3.13,0.78,5.87,1.91,8.22,3.37l-3.67,9.02c-4.74-2.69-9.49-4.04-14.23-4.04
			c-3.33,0-5.78,0.54-7.37,1.61c-1.59,1.08-2.38,2.49-2.38,4.26c0,1.76,0.92,3.07,2.75,3.93c1.83,0.86,4.63,1.7,8.4,2.53
			c3.91,0.93,7.12,1.86,9.61,2.79c2.49,0.93,4.63,2.4,6.42,4.4c1.79,2.01,2.68,4.72,2.68,8.14c0,2.93-0.82,5.61-2.46,8.03
			c-1.64,2.42-4.1,4.34-7.37,5.76c-3.28,1.42-7.26,2.13-11.96,2.13C460.56,188.42,456.63,187.87,452.84,186.77z"/>
		<path class="st7" d="M501.16,136.18h11.88v51.36h-11.88V136.18z"/>
		<path class="st7" d="M578.93,136.18v51.36h-9.76l-25.6-31.18v31.18h-11.74v-51.36h9.83l25.53,31.18v-31.18H578.93z"/>
		<path class="st7" d="M637.48,178.01v9.54h-39.77v-51.36h38.81v9.54h-27v11.15h23.85v9.24h-23.85v11.89H637.48z"/>
		<path class="st7" d="M658.64,186.77c-3.79-1.1-6.84-2.53-9.13-4.29l4.04-8.95c2.2,1.61,4.82,2.91,7.85,3.89
			c3.03,0.98,6.06,1.47,9.1,1.47c3.37,0,5.87-0.5,7.48-1.5c1.61-1,2.42-2.34,2.42-4c0-1.22-0.48-2.24-1.43-3.05
			c-0.95-0.81-2.18-1.45-3.67-1.94c-1.49-0.49-3.51-1.03-6.05-1.61c-3.91-0.93-7.12-1.86-9.61-2.79c-2.49-0.93-4.63-2.42-6.42-4.48
			c-1.79-2.05-2.68-4.79-2.68-8.22c0-2.98,0.81-5.69,2.42-8.11s4.05-4.34,7.3-5.76c3.25-1.42,7.23-2.13,11.92-2.13
			c3.28,0,6.48,0.39,9.61,1.17c3.13,0.78,5.87,1.91,8.22,3.37l-3.67,9.02c-4.74-2.69-9.49-4.04-14.23-4.04
			c-3.33,0-5.79,0.54-7.37,1.61c-1.59,1.08-2.38,2.49-2.38,4.26c0,1.76,0.92,3.07,2.75,3.93c1.83,0.86,4.63,1.7,8.4,2.53
			c3.91,0.93,7.12,1.86,9.61,2.79c2.49,0.93,4.63,2.4,6.42,4.4c1.79,2.01,2.68,4.72,2.68,8.14c0,2.93-0.82,5.61-2.46,8.03
			c-1.64,2.42-4.1,4.34-7.37,5.76c-3.28,1.42-7.26,2.13-11.96,2.13C666.36,188.42,662.43,187.87,658.64,186.77z"/>
		<path class="st7" d="M712.06,186.77c-3.79-1.1-6.84-2.53-9.13-4.29l4.04-8.95c2.2,1.61,4.82,2.91,7.85,3.89
			c3.03,0.98,6.06,1.47,9.1,1.47c3.37,0,5.87-0.5,7.48-1.5c1.62-1,2.42-2.34,2.42-4c0-1.22-0.48-2.24-1.43-3.05
			c-0.95-0.81-2.18-1.45-3.67-1.94c-1.49-0.49-3.51-1.03-6.05-1.61c-3.91-0.93-7.12-1.86-9.61-2.79c-2.49-0.93-4.63-2.42-6.42-4.48
			c-1.79-2.05-2.68-4.79-2.68-8.22c0-2.98,0.81-5.69,2.42-8.11c1.61-2.42,4.05-4.34,7.3-5.76c3.25-1.42,7.23-2.13,11.92-2.13
			c3.28,0,6.48,0.39,9.61,1.17c3.13,0.78,5.87,1.91,8.22,3.37l-3.67,9.02c-4.74-2.69-9.49-4.04-14.23-4.04
			c-3.33,0-5.79,0.54-7.37,1.61c-1.59,1.08-2.38,2.49-2.38,4.26c0,1.76,0.92,3.07,2.75,3.93c1.83,0.86,4.63,1.7,8.4,2.53
			c3.91,0.93,7.12,1.86,9.61,2.79c2.49,0.93,4.63,2.4,6.42,4.4c1.79,2.01,2.68,4.72,2.68,8.14c0,2.93-0.82,5.61-2.46,8.03
			c-1.64,2.42-4.1,4.34-7.37,5.76c-3.28,1.42-7.26,2.13-11.96,2.13C719.77,188.42,715.85,187.87,712.06,186.77z"/>
	</g>
	<g>
		<path class="st7" d="M326.07,253.44c-1.59-0.61-2.84-1.39-3.73-2.35l0.79-1.31c0.85,0.89,1.99,1.62,3.42,2.18
			c1.43,0.56,2.94,0.84,4.52,0.84c2.29,0,4.02-0.44,5.19-1.31c1.17-0.87,1.75-2,1.75-3.4c0-1.08-0.31-1.94-0.93-2.58
			c-0.62-0.64-1.39-1.13-2.3-1.48c-0.92-0.34-2.15-0.7-3.71-1.06c-1.76-0.44-3.18-0.86-4.24-1.27c-1.07-0.41-1.97-1.05-2.72-1.91
			c-0.75-0.86-1.12-2.01-1.12-3.45c0-1.17,0.31-2.24,0.93-3.21c0.62-0.97,1.56-1.75,2.84-2.32c1.27-0.57,2.86-0.86,4.76-0.86
			c1.33,0,2.63,0.19,3.92,0.58c1.28,0.39,2.39,0.92,3.33,1.58l-0.65,1.41c-0.96-0.66-2.02-1.17-3.18-1.51s-2.3-0.52-3.42-0.52
			c-2.22,0-3.91,0.45-5.05,1.34c-1.15,0.89-1.72,2.05-1.72,3.47c0,1.08,0.31,1.94,0.93,2.58c0.62,0.64,1.39,1.13,2.3,1.48
			c0.92,0.34,2.17,0.71,3.75,1.1c1.76,0.44,3.17,0.86,4.23,1.27s1.95,1.04,2.7,1.87c0.74,0.84,1.12,1.96,1.12,3.39
			c0,1.17-0.32,2.23-0.95,3.2c-0.63,0.96-1.6,1.73-2.9,2.3c-1.31,0.57-2.91,0.86-4.81,0.86
			C329.35,254.35,327.67,254.05,326.07,253.44z"/>
		<path class="st7" d="M371.91,254.18l-0.03-20.59l-10.07,17.39h-0.86l-10.07-17.32v20.52h-1.72v-24.06h1.48l10.76,18.59
			l10.76-18.59h1.44l0.03,24.06H371.91z"/>
		<path class="st7" d="M400.33,247.41h-13.95l-3.06,6.77h-1.89l11.07-24.06h1.75l11.07,24.06h-1.89L400.33,247.41z M399.68,245.93
			l-6.32-13.89l-6.29,13.89H399.68z"/>
		<path class="st7" d="M413.12,230.12h1.75v22.48h13.85v1.58h-15.6V230.12z"/>
		<path class="st7" d="M436.67,230.12h1.75v22.48h13.85v1.58h-15.6V230.12z"/>
		<path class="st7" d="M490.72,243.8c0.9,1.03,1.36,2.37,1.36,4.02c0,2.04-0.75,3.61-2.23,4.71c-1.49,1.1-3.7,1.65-6.63,1.65h-10.72
			v-24.06h10.04c2.61,0,4.65,0.53,6.1,1.6c1.46,1.07,2.18,2.58,2.18,4.55c0,1.38-0.36,2.53-1.08,3.47c-0.72,0.94-1.7,1.61-2.94,2.03
			C488.5,242.09,489.81,242.77,490.72,243.8z M474.23,231.63v9.59h8.21c2.11,0,3.73-0.41,4.86-1.22c1.13-0.81,1.7-2.01,1.7-3.59
			c0-1.56-0.57-2.74-1.7-3.56c-1.13-0.81-2.76-1.22-4.86-1.22H474.23z M488.52,251.45c1.2-0.81,1.8-2.07,1.8-3.76
			c0-1.7-0.6-2.94-1.8-3.75c-1.2-0.8-2.97-1.2-5.31-1.2h-8.97v9.93h8.97C485.54,252.67,487.31,252.26,488.52,251.45z"/>
		<path class="st7" d="M504.09,251.7c-1.68-1.76-2.53-4.34-2.53-7.73v-13.85h1.75v13.78c0,2.96,0.67,5.17,2.03,6.63
			c1.35,1.47,3.31,2.2,5.88,2.2c2.54,0,4.49-0.73,5.84-2.2c1.35-1.47,2.03-3.68,2.03-6.63v-13.78h1.75v13.85
			c0,3.39-0.85,5.97-2.54,7.73c-1.7,1.77-4.07,2.65-7.11,2.65C508.14,254.35,505.77,253.47,504.09,251.7z"/>
		<path class="st7" d="M533.75,253.44c-1.59-0.61-2.84-1.39-3.73-2.35l0.79-1.31c0.85,0.89,1.99,1.62,3.42,2.18
			c1.43,0.56,2.94,0.84,4.52,0.84c2.29,0,4.02-0.44,5.19-1.31c1.17-0.87,1.75-2,1.75-3.4c0-1.08-0.31-1.94-0.93-2.58
			c-0.62-0.64-1.39-1.13-2.3-1.48c-0.92-0.34-2.15-0.7-3.71-1.06c-1.77-0.44-3.18-0.86-4.25-1.27c-1.06-0.41-1.97-1.05-2.71-1.91
			c-0.75-0.86-1.12-2.01-1.12-3.45c0-1.17,0.31-2.24,0.93-3.21c0.62-0.97,1.56-1.75,2.83-2.32c1.27-0.57,2.86-0.86,4.76-0.86
			c1.33,0,2.64,0.19,3.92,0.58c1.28,0.39,2.39,0.92,3.33,1.58l-0.65,1.41c-0.96-0.66-2.02-1.17-3.18-1.51
			c-1.16-0.34-2.3-0.52-3.42-0.52c-2.22,0-3.91,0.45-5.05,1.34c-1.15,0.89-1.72,2.05-1.72,3.47c0,1.08,0.31,1.94,0.93,2.58
			c0.62,0.64,1.39,1.13,2.3,1.48c0.92,0.34,2.17,0.71,3.75,1.1c1.77,0.44,3.17,0.86,4.23,1.27c1.05,0.41,1.95,1.04,2.7,1.87
			c0.74,0.84,1.12,1.96,1.12,3.39c0,1.17-0.32,2.23-0.95,3.2c-0.63,0.96-1.6,1.73-2.9,2.3c-1.31,0.57-2.91,0.86-4.81,0.86
			C537.02,254.35,535.34,254.05,533.75,253.44z"/>
		<path class="st7" d="M556.83,230.12h1.75v24.06h-1.75V230.12z"/>
		<path class="st7" d="M590,230.12v24.06h-1.44l-16.4-20.9v20.9h-1.75v-24.06h1.48l16.36,20.9v-20.9H590z"/>
		<path class="st7" d="M618.42,252.6v1.58h-16.6v-24.06h16.09v1.58h-14.33v9.49h12.82v1.55h-12.82v9.86H618.42z"/>
		<path class="st7" d="M629.54,253.44c-1.59-0.61-2.84-1.39-3.73-2.35l0.79-1.31c0.85,0.89,1.99,1.62,3.42,2.18
			c1.43,0.56,2.94,0.84,4.52,0.84c2.29,0,4.02-0.44,5.19-1.31c1.17-0.87,1.75-2,1.75-3.4c0-1.08-0.31-1.94-0.93-2.58
			c-0.62-0.64-1.39-1.13-2.3-1.48c-0.92-0.34-2.15-0.7-3.71-1.06c-1.77-0.44-3.18-0.86-4.25-1.27c-1.06-0.41-1.97-1.05-2.71-1.91
			c-0.75-0.86-1.12-2.01-1.12-3.45c0-1.17,0.31-2.24,0.93-3.21c0.62-0.97,1.56-1.75,2.83-2.32c1.27-0.57,2.86-0.86,4.76-0.86
			c1.33,0,2.64,0.19,3.92,0.58c1.28,0.39,2.39,0.92,3.33,1.58l-0.65,1.41c-0.96-0.66-2.02-1.17-3.18-1.51
			c-1.16-0.34-2.3-0.52-3.42-0.52c-2.22,0-3.91,0.45-5.05,1.34c-1.15,0.89-1.72,2.05-1.72,3.47c0,1.08,0.31,1.94,0.93,2.58
			c0.62,0.64,1.39,1.13,2.3,1.48c0.92,0.34,2.17,0.71,3.75,1.1c1.77,0.44,3.17,0.86,4.23,1.27c1.05,0.41,1.95,1.04,2.7,1.87
			c0.74,0.84,1.12,1.96,1.12,3.39c0,1.17-0.32,2.23-0.95,3.2c-0.63,0.96-1.6,1.73-2.9,2.3c-1.31,0.57-2.91,0.86-4.81,0.86
			C632.81,254.35,631.14,254.05,629.54,253.44z"/>
		<path class="st7" d="M653.91,253.44c-1.59-0.61-2.84-1.39-3.73-2.35l0.79-1.31c0.85,0.89,1.99,1.62,3.42,2.18
			c1.43,0.56,2.94,0.84,4.52,0.84c2.29,0,4.02-0.44,5.19-1.31c1.17-0.87,1.75-2,1.75-3.4c0-1.08-0.31-1.94-0.93-2.58
			c-0.62-0.64-1.39-1.13-2.3-1.48c-0.92-0.34-2.15-0.7-3.71-1.06c-1.77-0.44-3.18-0.86-4.25-1.27c-1.06-0.41-1.97-1.05-2.71-1.91
			c-0.75-0.86-1.12-2.01-1.12-3.45c0-1.17,0.31-2.24,0.93-3.21c0.62-0.97,1.56-1.75,2.83-2.32c1.27-0.57,2.86-0.86,4.76-0.86
			c1.33,0,2.64,0.19,3.92,0.58c1.28,0.39,2.39,0.92,3.33,1.58l-0.65,1.41c-0.96-0.66-2.02-1.17-3.18-1.51
			c-1.16-0.34-2.3-0.52-3.42-0.52c-2.22,0-3.91,0.45-5.05,1.34c-1.15,0.89-1.72,2.05-1.72,3.47c0,1.08,0.31,1.94,0.93,2.58
			c0.62,0.64,1.39,1.13,2.3,1.48c0.92,0.34,2.17,0.71,3.75,1.1c1.77,0.44,3.17,0.86,4.23,1.27c1.05,0.41,1.95,1.04,2.7,1.87
			c0.74,0.84,1.12,1.96,1.12,3.39c0,1.17-0.32,2.23-0.95,3.2c-0.63,0.96-1.6,1.73-2.9,2.3c-1.31,0.57-2.91,0.86-4.81,0.86
			C657.18,254.35,655.51,254.05,653.91,253.44z"/>
		<path class="st7" d="M690.55,253.44c-1.59-0.61-2.84-1.39-3.73-2.35l0.79-1.31c0.85,0.89,1.99,1.62,3.42,2.18
			c1.43,0.56,2.94,0.84,4.52,0.84c2.29,0,4.02-0.44,5.19-1.31c1.17-0.87,1.75-2,1.75-3.4c0-1.08-0.31-1.94-0.93-2.58
			c-0.62-0.64-1.39-1.13-2.3-1.48c-0.92-0.34-2.15-0.7-3.71-1.06c-1.77-0.44-3.18-0.86-4.25-1.27c-1.06-0.41-1.97-1.05-2.71-1.91
			c-0.75-0.86-1.12-2.01-1.12-3.45c0-1.17,0.31-2.24,0.93-3.21c0.62-0.97,1.56-1.75,2.83-2.32c1.27-0.57,2.86-0.86,4.76-0.86
			c1.33,0,2.64,0.19,3.92,0.58c1.28,0.39,2.39,0.92,3.33,1.58l-0.65,1.41c-0.96-0.66-2.02-1.17-3.18-1.51
			c-1.16-0.34-2.3-0.52-3.42-0.52c-2.22,0-3.91,0.45-5.05,1.34c-1.15,0.89-1.72,2.05-1.72,3.47c0,1.08,0.31,1.94,0.93,2.58
			c0.62,0.64,1.39,1.13,2.3,1.48c0.92,0.34,2.17,0.71,3.75,1.1c1.77,0.44,3.17,0.86,4.23,1.27c1.05,0.41,1.95,1.04,2.7,1.87
			c0.74,0.84,1.12,1.96,1.12,3.39c0,1.17-0.32,2.23-0.95,3.2c-0.63,0.96-1.6,1.73-2.9,2.3c-1.31,0.57-2.91,0.86-4.81,0.86
			C693.82,254.35,692.15,254.05,690.55,253.44z"/>
		<path class="st7" d="M729.38,232.27c1.72,1.43,2.58,3.42,2.58,5.96c0,2.52-0.86,4.5-2.58,5.93c-1.72,1.43-4.09,2.15-7.11,2.15
			h-6.87v7.87h-1.75v-24.06h8.63C725.29,230.12,727.66,230.83,729.38,232.27z M728.14,243.04c1.35-1.12,2.03-2.73,2.03-4.81
			s-0.67-3.7-2.03-4.83c-1.35-1.13-3.31-1.7-5.88-1.7h-6.87v13.03h6.87C724.83,244.73,726.79,244.16,728.14,243.04z"/>
		<path class="st7" d="M757.9,252.6v1.58h-16.6v-24.06h16.09v1.58h-14.33v9.49h12.82v1.55h-12.82v9.86H757.9z"/>
		<path class="st7" d="M771.4,252.77c-1.89-1.05-3.38-2.51-4.47-4.37c-1.09-1.86-1.63-3.94-1.63-6.26c0-2.31,0.54-4.4,1.63-6.26
			c1.09-1.86,2.58-3.31,4.47-4.37c1.89-1.05,4.02-1.58,6.38-1.58c1.74,0,3.35,0.28,4.81,0.84c1.47,0.56,2.72,1.39,3.75,2.49
			l-1.1,1.13c-1.92-1.9-4.39-2.85-7.39-2.85c-2.02,0-3.85,0.46-5.5,1.38c-1.65,0.92-2.94,2.18-3.88,3.8
			c-0.94,1.62-1.41,3.42-1.41,5.41c0,1.99,0.47,3.8,1.41,5.41c0.94,1.61,2.23,2.88,3.88,3.8c1.65,0.92,3.48,1.38,5.5,1.38
			c2.98,0,5.44-0.96,7.39-2.89l1.1,1.13c-1.03,1.1-2.29,1.94-3.76,2.51c-1.48,0.57-3.08,0.86-4.79,0.86
			C775.41,254.35,773.29,253.82,771.4,252.77z"/>
		<path class="st7" d="M795.64,230.12h1.75v24.06h-1.75V230.12z"/>
		<path class="st7" d="M824.11,247.41h-13.95l-3.06,6.77h-1.89l11.07-24.06h1.75l11.07,24.06h-1.89L824.11,247.41z M823.45,245.93
			l-6.32-13.89l-6.29,13.89H823.45z"/>
		<path class="st7" d="M836.89,230.12h1.75v22.48h13.85v1.58h-15.61V230.12z"/>
		<path class="st7" d="M860.44,230.12h1.75v24.06h-1.75V230.12z"/>
		<path class="st7" d="M875.3,253.44c-1.59-0.61-2.84-1.39-3.73-2.35l0.79-1.31c0.85,0.89,1.99,1.62,3.42,2.18
			c1.43,0.56,2.94,0.84,4.52,0.84c2.29,0,4.02-0.44,5.19-1.31c1.17-0.87,1.75-2,1.75-3.4c0-1.08-0.31-1.94-0.93-2.58
			c-0.62-0.64-1.39-1.13-2.3-1.48c-0.92-0.34-2.15-0.7-3.71-1.06c-1.77-0.44-3.18-0.86-4.25-1.27c-1.06-0.41-1.97-1.05-2.71-1.91
			c-0.75-0.86-1.12-2.01-1.12-3.45c0-1.17,0.31-2.24,0.93-3.21c0.62-0.97,1.56-1.75,2.83-2.32c1.27-0.57,2.86-0.86,4.76-0.86
			c1.33,0,2.64,0.19,3.92,0.58c1.28,0.39,2.39,0.92,3.33,1.58l-0.65,1.41c-0.96-0.66-2.02-1.17-3.18-1.51
			c-1.16-0.34-2.3-0.52-3.42-0.52c-2.22,0-3.91,0.45-5.05,1.34c-1.15,0.89-1.72,2.05-1.72,3.47c0,1.08,0.31,1.94,0.93,2.58
			c0.62,0.64,1.39,1.13,2.3,1.48c0.92,0.34,2.17,0.71,3.75,1.1c1.77,0.44,3.17,0.86,4.23,1.27c1.05,0.41,1.95,1.04,2.7,1.87
			c0.74,0.84,1.12,1.96,1.12,3.39c0,1.17-0.32,2.23-0.95,3.2c-0.63,0.96-1.6,1.73-2.9,2.3c-1.31,0.57-2.91,0.86-4.81,0.86
			C878.57,254.35,876.89,254.05,875.3,253.44z"/>
		<path class="st7" d="M902.64,231.7h-8.66v-1.58h19.08v1.58h-8.66v22.48h-1.75V231.7z"/>
		<path class="st7" d="M921.67,253.44c-1.59-0.61-2.84-1.39-3.73-2.35l0.79-1.31c0.85,0.89,1.99,1.62,3.42,2.18
			c1.43,0.56,2.94,0.84,4.52,0.84c2.29,0,4.02-0.44,5.19-1.31c1.17-0.87,1.75-2,1.75-3.4c0-1.08-0.31-1.94-0.93-2.58
			c-0.62-0.64-1.39-1.13-2.3-1.48c-0.92-0.34-2.15-0.7-3.71-1.06c-1.77-0.44-3.18-0.86-4.25-1.27c-1.06-0.41-1.97-1.05-2.71-1.91
			c-0.75-0.86-1.12-2.01-1.12-3.45c0-1.17,0.31-2.24,0.93-3.21c0.62-0.97,1.56-1.75,2.83-2.32c1.27-0.57,2.86-0.86,4.76-0.86
			c1.33,0,2.64,0.19,3.92,0.58c1.28,0.39,2.39,0.92,3.33,1.58l-0.65,1.41c-0.96-0.66-2.02-1.17-3.18-1.51
			c-1.16-0.34-2.3-0.52-3.42-0.52c-2.22,0-3.91,0.45-5.05,1.34c-1.15,0.89-1.72,2.05-1.72,3.47c0,1.08,0.31,1.94,0.93,2.58
			c0.62,0.64,1.39,1.13,2.3,1.48c0.92,0.34,2.17,0.71,3.75,1.1c1.77,0.44,3.17,0.86,4.23,1.27c1.05,0.41,1.95,1.04,2.7,1.87
			c0.74,0.84,1.12,1.96,1.12,3.39c0,1.17-0.32,2.23-0.95,3.2c-0.63,0.96-1.6,1.73-2.9,2.3c-1.31,0.57-2.91,0.86-4.81,0.86
			C924.94,254.35,923.26,254.05,921.67,253.44z"/>
	</g>
</g>
</svg>
